<mxfile host="Electron" agent="Mozilla/5.0 (Windows NT 10.0; Win64; x64) AppleWebKit/537.36 (KHTML, like Gecko) draw.io/26.2.2 Chrome/134.0.6998.178 Electron/35.1.2 Safari/537.36" version="26.2.2">
  <diagram id="B9_Aq_7TXVrfqxIzFyXm" name="Referenten-Anlage">
    <mxGraphModel dx="1504" dy="1123" grid="1" gridSize="10" guides="1" tooltips="1" connect="1" arrows="1" fold="1" page="1" pageScale="1" pageWidth="827" pageHeight="1169" math="0" shadow="0">
      <root>
        <mxCell id="0" />
        <mxCell id="1" parent="0" />
        <mxCell id="HYDATyoYHxFJKQ_BGEWX-1" value="" style="whiteSpace=wrap;html=1;rounded=0;shadow=0;labelBackgroundColor=none;strokeWidth=1;fontFamily=Verdana;fontSize=12;align=center;comic=1;fillColor=#b0e3e6;strokeColor=#0e8088;" vertex="1" parent="1">
          <mxGeometry x="64" y="140" width="700" height="890" as="geometry" />
        </mxCell>
        <mxCell id="muS7_7-MB4xnct8192zd-2" value="Referent/in" style="whiteSpace=wrap;html=1;rounded=0;shadow=0;labelBackgroundColor=none;strokeWidth=1;fontFamily=Verdana;fontSize=28;align=center;comic=1;" vertex="1" parent="1">
          <mxGeometry x="124" y="221" width="580" height="50" as="geometry" />
        </mxCell>
        <mxCell id="jDBor4l9E0zREiE5kExO-1" value="&lt;div style=&quot;&quot;&gt;&lt;font style=&quot;font-size: 16px;&quot;&gt;Adresse:&lt;/font&gt;&lt;/div&gt;&lt;div style=&quot;&quot;&gt;&lt;font style=&quot;font-size: 16px;&quot;&gt;&lt;br&gt;&lt;/font&gt;&lt;/div&gt;&lt;div style=&quot;&quot;&gt;&lt;font style=&quot;font-size: 16px;&quot;&gt;&amp;lt;FREITEXT&lt;/font&gt;&lt;/div&gt;" style="whiteSpace=wrap;html=1;rounded=0;shadow=0;labelBackgroundColor=none;strokeWidth=1;fontFamily=Verdana;fontSize=12;align=left;verticalAlign=top;spacing=10;comic=1;" vertex="1" parent="1">
          <mxGeometry x="124" y="660" width="580" height="130" as="geometry" />
        </mxCell>
        <mxCell id="jDBor4l9E0zREiE5kExO-2" value="&lt;div style=&quot;&quot;&gt;&lt;font style=&quot;font-size: 16px;&quot;&gt;Name:&amp;nbsp; &amp;lt;NAME&amp;gt;&lt;/font&gt;&lt;/div&gt;" style="whiteSpace=wrap;html=1;rounded=0;shadow=0;labelBackgroundColor=none;strokeWidth=1;fontFamily=Verdana;fontSize=12;align=left;verticalAlign=top;spacing=10;comic=1;" vertex="1" parent="1">
          <mxGeometry x="124" y="495" width="580" height="50" as="geometry" />
        </mxCell>
        <mxCell id="jDBor4l9E0zREiE5kExO-3" value="&lt;div style=&quot;&quot;&gt;&lt;font style=&quot;font-size: 16px;&quot;&gt;Vorname:&amp;nbsp; &amp;lt;VORNAME&amp;gt;&lt;/font&gt;&lt;/div&gt;" style="whiteSpace=wrap;html=1;rounded=0;shadow=0;labelBackgroundColor=none;strokeWidth=1;fontFamily=Verdana;fontSize=12;align=left;verticalAlign=top;spacing=10;comic=1;" vertex="1" parent="1">
          <mxGeometry x="124" y="570" width="580" height="50" as="geometry" />
        </mxCell>
        <mxCell id="akWdeLTjbRjk_GTpYXwU-3" value="&lt;div style=&quot;&quot;&gt;&lt;font style=&quot;font-size: 16px;&quot;&gt;Telefon: &amp;lt;TELEFONNUMMER&amp;gt;&lt;/font&gt;&lt;/div&gt;" style="whiteSpace=wrap;html=1;rounded=0;shadow=0;labelBackgroundColor=none;strokeWidth=1;fontFamily=Verdana;fontSize=12;align=left;verticalAlign=top;spacing=10;comic=1;" vertex="1" parent="1">
          <mxGeometry x="124" y="810" width="580" height="50" as="geometry" />
        </mxCell>
        <mxCell id="akWdeLTjbRjk_GTpYXwU-4" value="" style="group" vertex="1" connectable="0" parent="1">
          <mxGeometry x="124" y="420" width="580" height="50" as="geometry" />
        </mxCell>
        <mxCell id="jDBor4l9E0zREiE5kExO-4" value="&lt;div style=&quot;&quot;&gt;&lt;font style=&quot;font-size: 16px;&quot;&gt;Titel:&amp;nbsp; &amp;nbsp; &amp;lt;Prof. Dr.&amp;gt;&lt;/font&gt;&lt;/div&gt;" style="whiteSpace=wrap;html=1;rounded=0;shadow=0;labelBackgroundColor=none;strokeWidth=1;fontFamily=Verdana;fontSize=12;align=left;verticalAlign=top;spacing=10;comic=1;" vertex="1" parent="akWdeLTjbRjk_GTpYXwU-4">
          <mxGeometry width="580" height="50" as="geometry" />
        </mxCell>
        <mxCell id="akWdeLTjbRjk_GTpYXwU-1" value="" style="verticalLabelPosition=bottom;verticalAlign=top;html=1;shape=mxgraph.basic.acute_triangle;dx=0.5;rotation=-180;fillColor=#dae8fc;strokeColor=#6c8ebf;" vertex="1" parent="akWdeLTjbRjk_GTpYXwU-4">
          <mxGeometry x="530" y="13" width="30" height="25" as="geometry" />
        </mxCell>
        <mxCell id="akWdeLTjbRjk_GTpYXwU-5" value="" style="group" vertex="1" connectable="0" parent="1">
          <mxGeometry x="124" y="290" width="180" height="105" as="geometry" />
        </mxCell>
        <mxCell id="1S_2yakPpZhpMNAw-AI0-3" value="" style="whiteSpace=wrap;html=1;rounded=0;shadow=0;labelBackgroundColor=none;strokeWidth=1;fontFamily=Verdana;fontSize=28;align=center;comic=1;" vertex="1" parent="akWdeLTjbRjk_GTpYXwU-5">
          <mxGeometry width="180" height="105" as="geometry" />
        </mxCell>
        <mxCell id="akWdeLTjbRjk_GTpYXwU-2" value="" style="shape=actor;whiteSpace=wrap;html=1;" vertex="1" parent="akWdeLTjbRjk_GTpYXwU-5">
          <mxGeometry x="55" y="17.5" width="70" height="70" as="geometry" />
        </mxCell>
        <mxCell id="akWdeLTjbRjk_GTpYXwU-6" value="&lt;div style=&quot;&quot;&gt;&lt;font style=&quot;font-size: 16px;&quot;&gt;E-Mail: &amp;lt;MAIL&amp;gt;&lt;/font&gt;&lt;/div&gt;" style="whiteSpace=wrap;html=1;rounded=0;shadow=0;labelBackgroundColor=none;strokeWidth=1;fontFamily=Verdana;fontSize=12;align=left;verticalAlign=top;spacing=10;comic=1;" vertex="1" parent="1">
          <mxGeometry x="124" y="880" width="580" height="50" as="geometry" />
        </mxCell>
        <mxCell id="WdpcVl2QUaxCgB979RQt-1" value="Submit" style="rounded=3;whiteSpace=wrap;html=1;shadow=0;labelBackgroundColor=none;strokeWidth=1;fillColor=#bac8d3;fontFamily=Verdana;fontSize=12;align=middle;verticalAlign=middle;spacing=10;comic=1;arcSize=19;imageHeight=24;absoluteArcSize=1;strokeColor=#23445d;" vertex="1" parent="1">
          <mxGeometry x="434" y="950" width="120" height="60" as="geometry" />
        </mxCell>
        <mxCell id="WdpcVl2QUaxCgB979RQt-2" value="Cancel" style="rounded=3;whiteSpace=wrap;html=1;shadow=0;labelBackgroundColor=none;strokeWidth=1;fillColor=#b1ddf0;fontFamily=Verdana;fontSize=12;align=middle;verticalAlign=middle;spacing=10;comic=1;arcSize=19;imageHeight=24;absoluteArcSize=1;strokeColor=#10739e;" vertex="1" parent="1">
          <mxGeometry x="264" y="950" width="120" height="60" as="geometry" />
        </mxCell>
      </root>
    </mxGraphModel>
  </diagram>
</mxfile>
